<?xml version="1.0" encoding="utf-8"?>
<svg id="Layer_1" data-name="Layer 1" viewBox="0 0 1920 1080" xmlns="http://www.w3.org/2000/svg">
  <polygon points="1092.41 561.54 957.11 639.07 778.61 536 778.61 329.9 957.11 226.85 1135.58 329.9 1135.58 459.08 1168.39 459.08 1168.39 310.96 957.11 189 745.82 310.96 745.82 554.92 957.11 676.92 1109.36 589.65 1092.41 561.54"/>
  <path d="M1175.17,528.62a25.88,25.88,0,1,1-26.53-25.21h0a25.93,25.93,0,0,1,26.49,25.21"/>
  <polygon points="914.33 418.41 940.85 495.99 945.93 495.99 968.28 495.99 973.36 495.99 999.88 418.41 999.88 495.99 1028.21 495.99 1028.21 369.97 999.88 369.97 988.41 369.97 957.07 462.78 925.79 369.97 914.33 369.97 885.97 369.97 885.97 495.99 914.33 495.99 914.33 418.41"/>
</svg>